<?xml version="1.0" encoding="iso-8859-1"?>
<!-- Generator: Adobe Illustrator 19.0.0, SVG Export Plug-In . SVG Version: 6.00 Build 0)  -->
<svg version="1.1" id="Layer_1" xmlns="http://www.w3.org/2000/svg" xmlns:xlink="http://www.w3.org/1999/xlink" x="0px" y="0px"
	 viewBox="0 0 455 455" style="enable-background:new 0 0 455 455;" xml:space="preserve">
<g>
	<polygon points="87.91,230 367.5,230 367.5,135 88.083,135 	"/>
	<polygon points="118.237,50 118.237,0 88.237,0 88.137,105 367.5,105 367.5,50 	"/>
	<path d="M87.5,455h280V260H87.855L87.5,455z M282.5,307.5h30v30h-30V307.5z M282.5,377.5h30v30h-30V377.5z M212.5,307.5h30v30h-30
		V307.5z M212.5,377.5h30v30h-30V377.5z M142.5,307.5h30v30h-30V307.5z M142.5,377.5h30v30h-30V377.5z"/>
</g>
<g>
</g>
<g>
</g>
<g>
</g>
<g>
</g>
<g>
</g>
<g>
</g>
<g>
</g>
<g>
</g>
<g>
</g>
<g>
</g>
<g>
</g>
<g>
</g>
<g>
</g>
<g>
</g>
<g>
</g>
</svg>
