<?xml version="1.0" encoding="iso-8859-1"?>
<!-- Generator: Adobe Illustrator 19.0.0, SVG Export Plug-In . SVG Version: 6.00 Build 0)  -->
<svg version="1.1" id="Layer_1" xmlns="http://www.w3.org/2000/svg" xmlns:xlink="http://www.w3.org/1999/xlink" x="0px" y="0px"
	 viewBox="0 0 491.684 491.684" style="enable-background:new 0 0 491.684 491.684;" xml:space="preserve">
<g>
	<path d="M470.842,270.85c0-10.887,3.127-15.529,7.861-22.556c5.783-8.584,12.98-19.268,12.98-39.318
		c0-20.05-7.197-30.734-12.98-39.319c-4.734-7.027-7.861-11.67-7.861-22.558h-30c0,20.05,7.197,30.734,12.98,39.319
		c4.734,7.027,7.861,11.67,7.861,22.558c0,10.887-3.127,15.529-7.861,22.556c-5.783,8.584-12.98,19.268-12.98,39.318
		c0,20.049,7.197,30.732,12.98,39.317c4.734,7.026,7.861,11.668,7.861,22.555c0,10.887-3.127,15.529-7.861,22.556
		c-5.781,8.583-12.978,19.264-12.98,39.305l30,0.005c0.002-10.882,3.129-15.523,7.861-22.548c5.783-8.584,12.98-19.268,12.98-39.318
		c0-20.049-7.197-30.732-12.98-39.317C473.969,286.379,470.842,281.737,470.842,270.85z"/>
	<path d="M50.842,147.101l-30-0.005c-0.001,10.882-3.128,15.523-7.861,22.548C7.198,178.229,0,188.912,0,208.962
		c0,20.049,7.198,30.732,12.981,39.317c4.734,7.026,7.861,11.668,7.861,22.555c0,10.887-3.127,15.529-7.861,22.556
		C7.198,301.974,0,312.658,0,332.708c0,20.05,7.197,30.734,12.981,39.319c4.734,7.027,7.861,11.669,7.861,22.558h30
		c0-20.051-7.197-30.734-12.981-39.319C33.127,348.238,30,343.595,30,332.708c0-10.887,3.127-15.529,7.861-22.556
		c5.783-8.584,12.981-19.268,12.981-39.318s-7.198-30.733-12.981-39.317C33.127,224.49,30,219.848,30,208.962
		c0-10.887,3.127-15.529,7.861-22.556C43.644,177.823,50.839,167.142,50.842,147.101z"/>
	<polygon points="106.207,248.342 385.842,248.342 385.842,153.342 106.361,153.342 	"/>
	<polygon points="136.58,18.342 106.58,18.342 106.409,123.342 385.842,123.342 385.842,68.342 136.58,68.342 	"/>
	<path d="M105.842,473.342h280v-195H106.158L105.842,473.342z M300.842,325.842h30v30h-30V325.842z M300.842,395.842h30v30h-30
		V395.842z M230.842,325.842h30v30h-30V325.842z M230.842,395.842h30v30h-30V395.842z M160.842,325.842h30v30h-30V325.842z
		 M160.842,395.842h30v30h-30V395.842z"/>
</g>
<g>
</g>
<g>
</g>
<g>
</g>
<g>
</g>
<g>
</g>
<g>
</g>
<g>
</g>
<g>
</g>
<g>
</g>
<g>
</g>
<g>
</g>
<g>
</g>
<g>
</g>
<g>
</g>
<g>
</g>
</svg>
