<?xml version="1.0" encoding="iso-8859-1"?>
<!-- Generator: Adobe Illustrator 19.0.0, SVG Export Plug-In . SVG Version: 6.00 Build 0)  -->
<svg version="1.1" id="Layer_1" xmlns="http://www.w3.org/2000/svg" xmlns:xlink="http://www.w3.org/1999/xlink" x="0px" y="0px"
	 viewBox="0 0 455 455" style="enable-background:new 0 0 455 455;" xml:space="preserve">
<g>
	<path d="M87.5,320h280V85h-280V320z M287.5,187.5c8.284,0,15,6.716,15,15s-6.716,15-15,15s-15-6.716-15-15
		S279.216,187.5,287.5,187.5z M227.5,187.5c8.284,0,15,6.716,15,15s-6.716,15-15,15s-15-6.716-15-15S219.216,187.5,227.5,187.5z
		 M167.5,187.5c8.284,0,15,6.716,15,15s-6.716,15-15,15s-15-6.716-15-15S159.216,187.5,167.5,187.5z"/>
	<rect x="87.5" width="280" height="55"/>
	<path d="M87.5,455h280V350h-280V455z M187.5,387.5h80v30h-80V387.5z"/>
</g>
<g>
</g>
<g>
</g>
<g>
</g>
<g>
</g>
<g>
</g>
<g>
</g>
<g>
</g>
<g>
</g>
<g>
</g>
<g>
</g>
<g>
</g>
<g>
</g>
<g>
</g>
<g>
</g>
<g>
</g>
</svg>
