<?xml version="1.0" encoding="iso-8859-1"?>
<!-- Generator: Adobe Illustrator 19.0.0, SVG Export Plug-In . SVG Version: 6.00 Build 0)  -->
<svg version="1.1" id="Layer_1" xmlns="http://www.w3.org/2000/svg" xmlns:xlink="http://www.w3.org/1999/xlink" x="0px" y="0px"
	 viewBox="0 0 455 455" style="enable-background:new 0 0 455 455;" xml:space="preserve">
<g>
	<polygon points="55,98.788 19.625,98.788 19.625,128.788 55,128.788 55,212.5 15,212.5 15,242.5 55,242.5 55,326.212 15,326.212 
		15,356.212 55,356.212 55,455 125,455 125,0 55,0 	"/>
	<path d="M155,0v455h285V0H155z M346.8,307.399c-18.176,1.675-51.221-17.565-81.428-47.771
		c-30.207-30.207-49.446-63.252-47.771-81.428c1.251-13.579,19.862-30.699,19.862-30.699l38.944,38.944l-15.532,15.532
		l62.148,62.148l15.532-15.532l38.944,38.944C377.5,287.536,360.379,306.147,346.8,307.399z"/>
</g>
<g>
</g>
<g>
</g>
<g>
</g>
<g>
</g>
<g>
</g>
<g>
</g>
<g>
</g>
<g>
</g>
<g>
</g>
<g>
</g>
<g>
</g>
<g>
</g>
<g>
</g>
<g>
</g>
<g>
</g>
</svg>
