<?xml version="1.0" encoding="iso-8859-1"?>
<!-- Generator: Adobe Illustrator 19.0.0, SVG Export Plug-In . SVG Version: 6.00 Build 0)  -->
<svg version="1.1" id="Layer_1" xmlns="http://www.w3.org/2000/svg" xmlns:xlink="http://www.w3.org/1999/xlink" x="0px" y="0px"
	 viewBox="0 0 455 455" style="enable-background:new 0 0 455 455;" xml:space="preserve">
<g>
	<polygon points="118.237,50 118.237,0 88.237,0 88.067,105 367.5,105 367.5,50 	"/>
	<path d="M87.865,230H367.5v-95H88.019L87.865,230z M287.5,167.5c8.284,0,15,6.716,15,15s-6.716,15-15,15c-8.284,0-15-6.716-15-15
		S279.216,167.5,287.5,167.5z M227.5,167.5c8.284,0,15,6.716,15,15s-6.716,15-15,15c-8.284,0-15-6.716-15-15
		S219.216,167.5,227.5,167.5z M167.5,167.5c8.284,0,15,6.716,15,15s-6.716,15-15,15c-8.284,0-15-6.716-15-15
		S159.216,167.5,167.5,167.5z"/>
	<path d="M87.5,455h280V260H87.816L87.5,455z M282.5,307.5h30v30h-30V307.5z M282.5,377.5h30v30h-30V377.5z M212.5,307.5h30v30h-30
		V307.5z M212.5,377.5h30v30h-30V377.5z M142.5,307.5h30v30h-30V307.5z M142.5,377.5h30v30h-30V377.5z"/>
</g>
<g>
</g>
<g>
</g>
<g>
</g>
<g>
</g>
<g>
</g>
<g>
</g>
<g>
</g>
<g>
</g>
<g>
</g>
<g>
</g>
<g>
</g>
<g>
</g>
<g>
</g>
<g>
</g>
<g>
</g>
</svg>
