<?xml version="1.0" encoding="iso-8859-1"?>
<!-- Generator: Adobe Illustrator 19.0.0, SVG Export Plug-In . SVG Version: 6.00 Build 0)  -->
<svg version="1.1" id="Layer_1" xmlns="http://www.w3.org/2000/svg" xmlns:xlink="http://www.w3.org/1999/xlink" x="0px" y="0px"
	 viewBox="0 0 465.664 465.664" style="enable-background:new 0 0 465.664 465.664;" xml:space="preserve">
<g>
	<path d="M410.104,123.482l-21.213,21.213c62.384,62.384,62.384,163.89,0,226.274l21.213,21.213
		C484.185,318.101,484.185,197.563,410.104,123.482z"/>
	<path d="M360.606,172.98l-21.213,21.213c16.967,16.967,26.312,39.568,26.312,63.64s-9.345,46.672-26.312,63.64l21.213,21.213
		C407.395,295.897,407.395,219.767,360.606,172.98z"/>
	<rect y="90.332" width="280" height="235"/>
	<rect y="5.332" width="280" height="55"/>
	<path d="M0,460.332h280v-105H0V460.332z M100,392.832h80v30h-80V392.832z"/>
</g>
<g>
</g>
<g>
</g>
<g>
</g>
<g>
</g>
<g>
</g>
<g>
</g>
<g>
</g>
<g>
</g>
<g>
</g>
<g>
</g>
<g>
</g>
<g>
</g>
<g>
</g>
<g>
</g>
<g>
</g>
</svg>
