<?xml version="1.0" encoding="iso-8859-1"?>
<!-- Generator: Adobe Illustrator 19.0.0, SVG Export Plug-In . SVG Version: 6.00 Build 0)  -->
<svg version="1.1" id="Layer_1" xmlns="http://www.w3.org/2000/svg" xmlns:xlink="http://www.w3.org/1999/xlink" x="0px" y="0px"
	 viewBox="0 0 455 455" style="enable-background:new 0 0 455 455;" xml:space="preserve">
<g>
	<polygon points="0,47.696 0,292.875 136.195,170.285 	"/>
	<polygon points="372.579,27.514 22.421,27.514 197.5,185.104 	"/>
	<path d="M331.768,242.638c0,4.901,0,9.609,0,14.011h88.023c0-4.403,0-9.111,0-14.011c0-24.307-19.704-44.011-44.011-44.011
		C351.473,198.627,331.768,218.331,331.768,242.638z"/>
	<rect x="296.559" y="286.649" width="158.441" height="140.836"/>
	<polygon points="301.768,249.319 236.385,190.467 197.5,225.467 158.616,190.467 22.421,313.056 266.559,313.056 266.559,256.649 
		301.768,256.649 	"/>
	<path d="M307.494,214.11c11.191-26.687,37.582-45.483,68.286-45.483c6.647,0,13.087,0.895,19.22,2.546V47.696L258.806,170.285
		L307.494,214.11z"/>
</g>
<g>
</g>
<g>
</g>
<g>
</g>
<g>
</g>
<g>
</g>
<g>
</g>
<g>
</g>
<g>
</g>
<g>
</g>
<g>
</g>
<g>
</g>
<g>
</g>
<g>
</g>
<g>
</g>
<g>
</g>
</svg>
