<?xml version="1.0" encoding="iso-8859-1"?>
<!-- Generator: Adobe Illustrator 19.1.0, SVG Export Plug-In . SVG Version: 6.00 Build 0)  -->
<svg version="1.1" id="Capa_1" xmlns="http://www.w3.org/2000/svg" xmlns:xlink="http://www.w3.org/1999/xlink" x="0px" y="0px"
	 viewBox="0 0 476.208 476.208" style="enable-background:new 0 0 476.208 476.208;" xml:space="preserve">
<g>
	<polygon points="304.247,240.604 377.743,240.604 377.589,145.604 209.247,145.604 	"/>
	<polygon points="98.107,240.604 176.968,240.604 98.107,161.744 	"/>
	<polygon points="377.54,115.604 377.449,60.604 128.186,60.604 128.107,10.604 98.107,10.604 98.107,34.465 179.247,115.604 	"/>
	<path d="M0,21.213L21.213,0l454.995,454.995l-21.213,21.213L0,21.213z"/>
	<polygon points="377.862,314.22 377.791,270.604 334.247,270.604 	"/>
	<path d="M206.968,270.604H98.107v195h280l-0.039-23.9L206.968,270.604z M183.107,418.104h-30v-30h30V418.104z M183.107,348.104h-30
		v-30h30V348.104z M253.107,418.104h-30v-30h30V418.104z M253.107,348.104h-30v-30h30V348.104z M323.107,418.104h-30v-30h30V418.104
		z"/>
</g>
<g>
</g>
<g>
</g>
<g>
</g>
<g>
</g>
<g>
</g>
<g>
</g>
<g>
</g>
<g>
</g>
<g>
</g>
<g>
</g>
<g>
</g>
<g>
</g>
<g>
</g>
<g>
</g>
<g>
</g>
</svg>
