<svg xmlns="http://www.w3.org/2000/svg" style="display: none;"><symbol id="ingresar-boton-de-flecha-en-esquema-de-cuadrado" viewBox="0 0 612 612"><title>ingresar-boton-de-flecha-en-esquema-de-cuadrado</title><path d="M331.685,425.378c-7.478,7.479-7.478,19.584,0,27.043c7.479,7.478,19.584,7.478,27.043,0l131.943-131.962 c3.979-3.979,5.681-9.276,5.412-14.479c0.269-5.221-1.434-10.499-5.412-14.477L358.728,159.56 c-7.459-7.478-19.584-7.478-27.043,0c-7.478,7.478-7.478,19.584,0,27.042l100.272,100.272H19.125C8.568,286.875,0,295.443,0,306 c0,10.557,8.568,19.125,19.125,19.125h412.832L331.685,425.378z M535.5,38.25H153c-42.247,0-76.5,34.253-76.5,76.5v76.5h38.25 v-76.5c0-21.114,17.117-38.25,38.25-38.25h382.5c21.133,0,38.25,17.136,38.25,38.25v382.5c0,21.114-17.117,38.25-38.25,38.25H153 c-21.133,0-38.25-17.117-38.25-38.25v-76.5H76.5v76.5c0,42.247,34.253,76.5,76.5,76.5h382.5c42.247,0,76.5-34.253,76.5-76.5 v-382.5C612,72.503,577.747,38.25,535.5,38.25z"/></symbol><symbol id="signos" viewBox="0 0 438.533 438.533"><title>signos</title><path d="M409.133,109.203c-19.608-33.592-46.205-60.189-79.798-79.796C295.736,9.801,259.058,0,219.273,0 c-39.781,0-76.47,9.801-110.063,29.407c-33.595,19.604-60.192,46.201-79.8,79.796C9.801,142.8,0,179.489,0,219.267 c0,39.78,9.804,76.463,29.407,110.062c19.607,33.592,46.204,60.189,79.799,79.798c33.597,19.605,70.283,29.407,110.063,29.407 s76.47-9.802,110.065-29.407c33.593-19.602,60.189-46.206,79.795-79.798c19.603-33.596,29.403-70.284,29.403-110.062 C438.533,179.485,428.732,142.795,409.133,109.203z M255.82,356.309c0,2.662-0.862,4.853-2.573,6.563 c-1.704,1.711-3.895,2.567-6.557,2.567h-54.823c-2.664,0-4.854-0.856-6.567-2.567c-1.714-1.711-2.57-3.901-2.57-6.563v-54.823 c0-2.662,0.855-4.853,2.57-6.563c1.713-1.708,3.903-2.563,6.567-2.563h54.823c2.662,0,4.853,0.855,6.557,2.563 c1.711,1.711,2.573,3.901,2.573,6.563V356.309z M325.338,187.574c-2.382,7.043-5.044,12.804-7.994,17.275 c-2.949,4.473-7.187,9.042-12.709,13.703c-5.51,4.663-9.891,7.996-13.135,9.998c-3.23,1.995-7.898,4.713-13.982,8.135 c-6.283,3.613-11.465,8.326-15.555,14.134c-4.093,5.804-6.139,10.513-6.139,14.126c0,2.67-0.862,4.859-2.574,6.571 c-1.707,1.711-3.897,2.566-6.56,2.566h-54.82c-2.664,0-4.854-0.855-6.567-2.566c-1.715-1.712-2.568-3.901-2.568-6.571v-10.279 c0-12.752,4.993-24.701,14.987-35.832c9.994-11.136,20.986-19.368,32.979-24.698c9.13-4.186,15.604-8.47,19.41-12.847 c3.812-4.377,5.715-10.188,5.715-17.417c0-6.283-3.572-11.897-10.711-16.849c-7.139-4.947-15.27-7.421-24.409-7.421 c-9.9,0-18.082,2.285-24.555,6.855c-6.283,4.565-14.465,13.322-24.554,26.263c-1.713,2.286-4.093,3.431-7.139,3.431 c-2.284,0-4.093-0.57-5.424-1.709L121.35,145.89c-4.377-3.427-5.138-7.422-2.286-11.991 c24.366-40.542,59.672-60.813,105.922-60.813c16.563,0,32.744,3.903,48.541,11.708c15.796,7.801,28.979,18.842,39.546,33.119 c10.554,14.272,15.845,29.787,15.845,46.537C328.904,172.824,327.71,180.529,325.338,187.574z"/></symbol><symbol id="bloquear" viewBox="0 0 24 24"><title>bloquear</title><path style="fill:#030104;" d="M12,11.953c-0.665,0-1.203,0.518-1.203,1.156c0,0.427,0.243,0.795,0.601,0.996v1.316 C11.398,15.74,11.669,16,12,16s0.602-0.26,0.602-0.578v-1.316c0.358-0.201,0.602-0.569,0.602-0.996 C13.203,12.471,12.665,11.953,12,11.953z"/><path style="fill:#030104;" d="M12,0C5.373,0,0,5.373,0,12s5.373,12,12,12s12-5.373,12-12S18.627,0,12,0z M12,5 c2.393,0,4,1.607,4,4h-1.25c0-1.519-1.231-2.75-2.75-2.75S9.25,7.481,9.25,9H8C8,6.607,9.607,5,12,5z M17,16.5 c0,0.828-0.672,1.5-1.5,1.5h-7C7.672,18,7,17.328,7,16.5v-5C7,10.672,7.672,10,8.5,10h7c0.828,0,1.5,0.672,1.5,1.5V16.5z"/></symbol><symbol id="edificios" viewBox="0 0 539.077 539.077"><title>edificios</title><path d="M460.462,527.846H325.692c-6.208,0-11.231-5.023-11.231-11.231v-146h-89.846v146c0,6.208-5.023,11.231-11.231,11.231 H78.615c-6.208,0-11.231-5.023-11.231-11.231V292c0-6.208,5.023-11.231,11.231-11.231c6.208,0,11.231,5.023,11.231,11.231v213.385 h112.308v-146c0-6.208,5.023-11.231,11.231-11.231h112.308c6.208,0,11.231,5.023,11.231,11.231v146h112.308V303.231 c0-6.208,5.023-11.231,11.231-11.231c6.208,0,11.231,5.023,11.231,11.231v213.385 C471.692,522.823,466.669,527.846,460.462,527.846z M527.846,292c-2.873,0-5.747-1.097-7.94-3.29L269.538,38.343L19.171,288.71 c-4.387,4.387-11.494,4.387-15.881,0c-4.387-4.387-4.387-11.494,0-15.881L261.598,14.521c4.387-4.387,11.494-4.387,15.881,0 l258.308,258.308c4.387,4.387,4.387,11.494,0,15.881C533.593,290.903,530.72,292,527.846,292z M438,134.769 c-6.208,0-11.231-5.023-11.231-11.231V56.154h-67.385c-6.208,0-11.231-5.023-11.231-11.231s5.023-11.231,11.231-11.231H438 c6.208,0,11.231,5.023,11.231,11.231v78.615C449.231,129.746,444.208,134.769,438,134.769z"/></symbol><symbol id="agenda" viewBox="0 0 484.849 484.849"><title>agenda</title><path d="M262.797,274.552c30.206,30.206,63.252,49.446,81.428,47.771c13.579-1.252,30.7-19.862,30.7-19.862l-38.945-38.944 l-15.532,15.532L258.3,216.901l15.532-15.532l-38.945-38.944c0,0-18.611,17.12-19.862,30.699 C213.351,211.3,232.59,244.345,262.797,274.552z"/><path d="M49.924,0v113.712h-22.5v30h22.5v83.712h-25v30h25v83.712h-25v30h25v113.712h410V0H49.924z M79.924,371.136h25v-30h-25 v-83.712h25v-30h-25v-83.712h25v-30h-25V30h50v424.849h-50V371.136z M429.924,454.849h-270V30h270V454.849z"/></symbol></svg>